<svg xmlns="http://www.w3.org/2000/svg" width="24" height="24" viewBox="0 0 24 24">
    <g fill="none" fill-rule="evenodd">
        <path d="M0 0h24v24H0z"/>
        <path stroke="#8F8F8F" stroke-linejoin="round" stroke-width="2" d="M7.5 14a5.5 5.5 0 0 1 5.5 5.5V21H2v-1.5A5.5 5.5 0 0 1 7.5 14zM7 4h1a3 3 0 0 1 3 3v1.5a3.5 3.5 0 0 1-7 0V7a3 3 0 0 1 3-3z"/>
        <path stroke="#8F8F8F" stroke-linecap="round" stroke-linejoin="round" stroke-width="2" d="M13.767 12.726A5.5 5.5 0 0 1 22 17.5V19h-6m0-17h1a3 3 0 0 1 3 3v1.5a3.5 3.5 0 0 1-7 0V5a3 3 0 0 1 3-3z"/>
    </g>
</svg>
